<mxfile host="app.diagrams.net" modified="2022-05-06T11:51:23.913Z" agent="5.0 (Windows NT 10.0; Win64; x64) AppleWebKit/537.36 (KHTML, like Gecko) Chrome/101.0.4951.41 Safari/537.36" etag="O9W2Adg1dd0HtHBWfAb5" version="18.0.1" type="github">
  <diagram id="IoXJIi9ffzv8PMqlSjYH" name="Page-1">
    <mxGraphModel dx="1038" dy="579" grid="1" gridSize="10" guides="1" tooltips="1" connect="1" arrows="1" fold="1" page="1" pageScale="1" pageWidth="850" pageHeight="1100" math="0" shadow="0">
      <root>
        <mxCell id="0" />
        <mxCell id="1" parent="0" />
        <mxCell id="HxHVkMQKwAcovQtywWKm-3" value="" style="edgeStyle=orthogonalEdgeStyle;rounded=0;orthogonalLoop=1;jettySize=auto;html=1;" parent="1" source="HxHVkMQKwAcovQtywWKm-1" edge="1">
          <mxGeometry relative="1" as="geometry">
            <mxPoint x="285" y="140" as="targetPoint" />
          </mxGeometry>
        </mxCell>
        <mxCell id="HxHVkMQKwAcovQtywWKm-1" value="start" style="ellipse;whiteSpace=wrap;html=1;" parent="1" vertex="1">
          <mxGeometry x="210" y="50" width="150" height="50" as="geometry" />
        </mxCell>
        <mxCell id="HxHVkMQKwAcovQtywWKm-7" value="" style="edgeStyle=orthogonalEdgeStyle;rounded=0;orthogonalLoop=1;jettySize=auto;html=1;" parent="1" source="HxHVkMQKwAcovQtywWKm-4" target="HxHVkMQKwAcovQtywWKm-6" edge="1">
          <mxGeometry relative="1" as="geometry" />
        </mxCell>
        <mxCell id="HxHVkMQKwAcovQtywWKm-4" value="n=20&lt;br&gt;m=50&lt;br&gt;sum=0" style="whiteSpace=wrap;html=1;" parent="1" vertex="1">
          <mxGeometry x="225" y="140" width="120" height="50" as="geometry" />
        </mxCell>
        <mxCell id="HxHVkMQKwAcovQtywWKm-9" value="" style="edgeStyle=orthogonalEdgeStyle;rounded=0;orthogonalLoop=1;jettySize=auto;html=1;" parent="1" source="HxHVkMQKwAcovQtywWKm-6" target="HxHVkMQKwAcovQtywWKm-8" edge="1">
          <mxGeometry relative="1" as="geometry" />
        </mxCell>
        <mxCell id="HxHVkMQKwAcovQtywWKm-13" value="" style="edgeStyle=orthogonalEdgeStyle;rounded=0;orthogonalLoop=1;jettySize=auto;html=1;" parent="1" source="HxHVkMQKwAcovQtywWKm-6" target="HxHVkMQKwAcovQtywWKm-12" edge="1">
          <mxGeometry relative="1" as="geometry" />
        </mxCell>
        <mxCell id="HxHVkMQKwAcovQtywWKm-6" value="i=n;i&amp;lt;m;i++" style="shape=hexagon;perimeter=hexagonPerimeter2;whiteSpace=wrap;html=1;fixedSize=1;" parent="1" vertex="1">
          <mxGeometry x="225" y="235" width="120" height="60" as="geometry" />
        </mxCell>
        <mxCell id="HxHVkMQKwAcovQtywWKm-10" style="edgeStyle=orthogonalEdgeStyle;rounded=0;orthogonalLoop=1;jettySize=auto;html=1;" parent="1" source="HxHVkMQKwAcovQtywWKm-8" edge="1">
          <mxGeometry relative="1" as="geometry">
            <mxPoint x="100" y="210" as="targetPoint" />
            <Array as="points">
              <mxPoint x="100" y="330" />
            </Array>
          </mxGeometry>
        </mxCell>
        <mxCell id="HxHVkMQKwAcovQtywWKm-8" value="sum+=i" style="whiteSpace=wrap;html=1;" parent="1" vertex="1">
          <mxGeometry x="225" y="310" width="120" height="50" as="geometry" />
        </mxCell>
        <mxCell id="HxHVkMQKwAcovQtywWKm-11" value="" style="endArrow=classic;html=1;rounded=0;" parent="1" edge="1">
          <mxGeometry width="50" height="50" relative="1" as="geometry">
            <mxPoint x="100" y="210" as="sourcePoint" />
            <mxPoint x="285" y="210" as="targetPoint" />
            <Array as="points">
              <mxPoint x="160" y="210" />
            </Array>
          </mxGeometry>
        </mxCell>
        <mxCell id="HxHVkMQKwAcovQtywWKm-16" value="" style="edgeStyle=orthogonalEdgeStyle;rounded=0;orthogonalLoop=1;jettySize=auto;html=1;" parent="1" source="HxHVkMQKwAcovQtywWKm-12" target="HxHVkMQKwAcovQtywWKm-15" edge="1">
          <mxGeometry relative="1" as="geometry" />
        </mxCell>
        <mxCell id="HxHVkMQKwAcovQtywWKm-12" value="print" style="shape=document;whiteSpace=wrap;html=1;boundedLbl=1;" parent="1" vertex="1">
          <mxGeometry x="380" y="230" width="120" height="70" as="geometry" />
        </mxCell>
        <mxCell id="HxHVkMQKwAcovQtywWKm-15" value="finish" style="ellipse;whiteSpace=wrap;html=1;" parent="1" vertex="1">
          <mxGeometry x="540" y="235" width="120" height="60" as="geometry" />
        </mxCell>
        <mxCell id="HxHVkMQKwAcovQtywWKm-26" value="" style="edgeStyle=orthogonalEdgeStyle;rounded=0;orthogonalLoop=1;jettySize=auto;html=1;" parent="1" source="HxHVkMQKwAcovQtywWKm-19" target="HxHVkMQKwAcovQtywWKm-25" edge="1">
          <mxGeometry relative="1" as="geometry" />
        </mxCell>
        <mxCell id="HxHVkMQKwAcovQtywWKm-19" value="start" style="ellipse;whiteSpace=wrap;html=1;" parent="1" vertex="1">
          <mxGeometry x="750" y="50" width="150" height="50" as="geometry" />
        </mxCell>
        <mxCell id="HxHVkMQKwAcovQtywWKm-28" value="" style="edgeStyle=orthogonalEdgeStyle;rounded=0;orthogonalLoop=1;jettySize=auto;html=1;" parent="1" source="HxHVkMQKwAcovQtywWKm-20" target="HxHVkMQKwAcovQtywWKm-21" edge="1">
          <mxGeometry relative="1" as="geometry" />
        </mxCell>
        <mxCell id="HxHVkMQKwAcovQtywWKm-20" value="&lt;br&gt;sum=0" style="whiteSpace=wrap;html=1;" parent="1" vertex="1">
          <mxGeometry x="765" y="200" width="120" height="50" as="geometry" />
        </mxCell>
        <mxCell id="HxHVkMQKwAcovQtywWKm-29" value="" style="edgeStyle=orthogonalEdgeStyle;rounded=0;orthogonalLoop=1;jettySize=auto;html=1;" parent="1" source="HxHVkMQKwAcovQtywWKm-21" target="HxHVkMQKwAcovQtywWKm-22" edge="1">
          <mxGeometry relative="1" as="geometry" />
        </mxCell>
        <mxCell id="HxHVkMQKwAcovQtywWKm-32" value="" style="edgeStyle=orthogonalEdgeStyle;rounded=0;orthogonalLoop=1;jettySize=auto;html=1;" parent="1" source="HxHVkMQKwAcovQtywWKm-21" target="HxHVkMQKwAcovQtywWKm-23" edge="1">
          <mxGeometry relative="1" as="geometry" />
        </mxCell>
        <mxCell id="HxHVkMQKwAcovQtywWKm-21" value="i=n;i&amp;lt;m;i++" style="shape=hexagon;perimeter=hexagonPerimeter2;whiteSpace=wrap;html=1;fixedSize=1;" parent="1" vertex="1">
          <mxGeometry x="765" y="295" width="120" height="60" as="geometry" />
        </mxCell>
        <mxCell id="HxHVkMQKwAcovQtywWKm-30" style="edgeStyle=orthogonalEdgeStyle;rounded=0;orthogonalLoop=1;jettySize=auto;html=1;" parent="1" source="HxHVkMQKwAcovQtywWKm-22" edge="1">
          <mxGeometry relative="1" as="geometry">
            <mxPoint x="740" y="280" as="targetPoint" />
          </mxGeometry>
        </mxCell>
        <mxCell id="HxHVkMQKwAcovQtywWKm-22" value="sum+=i" style="whiteSpace=wrap;html=1;" parent="1" vertex="1">
          <mxGeometry x="765" y="380" width="120" height="50" as="geometry" />
        </mxCell>
        <mxCell id="HxHVkMQKwAcovQtywWKm-33" value="" style="edgeStyle=orthogonalEdgeStyle;rounded=0;orthogonalLoop=1;jettySize=auto;html=1;" parent="1" source="HxHVkMQKwAcovQtywWKm-23" target="HxHVkMQKwAcovQtywWKm-24" edge="1">
          <mxGeometry relative="1" as="geometry" />
        </mxCell>
        <mxCell id="HxHVkMQKwAcovQtywWKm-23" value="print" style="shape=document;whiteSpace=wrap;html=1;boundedLbl=1;" parent="1" vertex="1">
          <mxGeometry x="930" y="290" width="120" height="70" as="geometry" />
        </mxCell>
        <mxCell id="HxHVkMQKwAcovQtywWKm-24" value="finish" style="ellipse;whiteSpace=wrap;html=1;" parent="1" vertex="1">
          <mxGeometry x="1080" y="295" width="120" height="60" as="geometry" />
        </mxCell>
        <mxCell id="HxHVkMQKwAcovQtywWKm-27" value="" style="edgeStyle=orthogonalEdgeStyle;rounded=0;orthogonalLoop=1;jettySize=auto;html=1;" parent="1" source="HxHVkMQKwAcovQtywWKm-25" target="HxHVkMQKwAcovQtywWKm-20" edge="1">
          <mxGeometry relative="1" as="geometry" />
        </mxCell>
        <mxCell id="HxHVkMQKwAcovQtywWKm-25" value="n;m" style="shape=parallelogram;perimeter=parallelogramPerimeter;whiteSpace=wrap;html=1;fixedSize=1;" parent="1" vertex="1">
          <mxGeometry x="765" y="140" width="120" height="40" as="geometry" />
        </mxCell>
        <mxCell id="HxHVkMQKwAcovQtywWKm-31" value="" style="endArrow=classic;html=1;rounded=0;" parent="1" edge="1">
          <mxGeometry width="50" height="50" relative="1" as="geometry">
            <mxPoint x="740" y="280" as="sourcePoint" />
            <mxPoint x="820" y="280" as="targetPoint" />
          </mxGeometry>
        </mxCell>
      </root>
    </mxGraphModel>
  </diagram>
</mxfile>
